<?xml version="1.0" encoding="UTF-8"?>
<svg id="UNISWAP" xmlns="http://www.w3.org/2000/svg" viewBox="0 0 145.42 143.63">
  <defs>
    <style>
      .cls-1 {
        fill: #f9f0da;
      }

      .cls-1, .cls-2, .cls-3, .cls-4, .cls-5, .cls-6 {
        stroke-width: 0px;
      }

      .cls-2 {
        fill: #ff2681;
      }

      .cls-3 {
        fill: #ff1e7c;
      }

      .cls-4 {
        fill: #fdf9fb;
      }

      .cls-5 {
        fill: #121010;
      }

      .cls-6 {
        fill: #f5f6f6;
      }
    </style>
  </defs>
  <path class="cls-5" d="m70.74,143.27c-12.34,1.78-23.08-3.21-32.91-9.29C12.97,118.61.25,95.88-.15,66.52c-.09-6.78,1.38-13.37,4.08-19.58C14.53,22.59,32.53,7.22,58.88,2.24c8.57-1.62,17.24-2.95,25.98-1.81,18.84,2.44,34.23,11.43,44.78,27,13.83,20.39,18.2,43.21,13.41,67.53-2.29,11.63-8.33,21.17-17.18,28.96-12.82,11.28-27.7,17.73-44.8,18.86-3.44.23-6.89.34-10.34.51Zm-.44-7.1c2.36,0,4.72.08,7.08-.01,16.5-.67,31.25-5.91,43.89-16.75,8.59-7.37,14.1-16.54,16.1-27.66,3.65-20.31.19-39.54-10.48-57.07-9.69-15.92-24.36-25.18-42.9-27.63-10.2-1.35-20.26.72-30.19,3.01C26.15,16.43-3.72,48.11,7.69,87.62c7.76,26.87,33.12,49.94,62.61,48.55Z"/>
  <path class="cls-4" d="m70.3,136.17c-29.5,1.39-54.85-21.68-62.61-48.55C-3.72,48.11,26.15,16.43,53.8,10.05c9.93-2.29,19.99-4.36,30.19-3.01,18.53,2.45,33.21,11.71,42.9,27.63,10.67,17.52,14.13,36.76,10.48,57.07-2,11.13-7.51,20.3-16.1,27.66-12.64,10.84-27.39,16.08-43.89,16.75-2.36.1-4.72.01-7.08.01Zm15.83-99.07c-.26-.95-.52-1.89-.75-2.7-4.07-1.44-7.29.05-10.21,2.26-3.93-3.23-4.77-9.14-10.55-11.05-3.26,8.45-5.79,16.51-3.9,25.08,2.54.35,5.24.48,7.81,1.15,3.68.96,4.83-2.16,6.08-3.54,3.43.98,6.13,2.3,8.88,2.41,3.97.15,7.44,1.25,10.77,3.24,5.16,3.07,10.81,4.08,16.72,3.72.87-.05,1.71-.66,3.68-1.46-5.98-1.78-10.94-3.38-13.38-8.29-2.16-4.32-8.29-6.33-7.24-12.48,2.04-1.7,4.09-3.39,6.13-5.09-.2-.37-.4-.73-.61-1.1-2.73,1.08-5.46,2.16-8.41,3.32-2.11-3.52-4.22-7.04-6.33-10.56-.36.17-.72.33-1.07.5,1.06,2.59,2.29,5.12,3.11,7.78.61,1.98.7,4.12,1.02,6.2-.59.2-1.17.4-1.76.6Zm-26.01,70.9c-.15.49-.3.97-.45,1.47q5.06.73,7.77,5.44c.72,1.25,1.38,2.63,2.39,3.61,1.28,1.23,2.77,2.38,4.38,3.09,2.13.94,4.33.62,6.01-1.19,1.63-1.76,1.94-3.88,1.05-6.08-.85-2.14-2.29-3.82-4.74-3.9-.74-.03-1.51.89-3.19,1.96,1.69,0,2.19-.05,2.68,0,2.28.25,3.07,1.97,3.05,3.83-.01,1.06-.96,2.92-1.65,3-1.43.16-3.03-.48-4.42-1.1-.75-.33-1.31-1.24-1.81-1.99-1.99-2.95-3.93-5.94-5.93-8.96,4.62-3.37,8.9-3.89,13.78.06,2.69,2.17,6.37,3.41,9.8,4.29,4.2,1.08,8.42-1.52,10.83-5.96-1.05.16-1.97.18-2.8.46-5.03,1.64-8.83-.28-12.03-4.04-.82-.97-1.56-2.01-2.44-2.93-2.34-2.42-5.1-3.33-8.41-2.21-4.59,1.55-9.19,3.07-13.79,4.58-1.12.37-2.26.64-3.42.97-2.35-11.21-5.45-13.62-18.84-14.63,4.32-6.61,7.64-13.43,8.61-22.04,1.73,2.22,2.69,3.52,3.73,4.76,2.79,3.33,8.41,3.62,12.22.66,3.5-2.72,3.63-5.58.32-9.87-1.76-2.28-3.64-4.46-5.4-6.6.72-1.27,1.23-2.17,1.74-3.08-2.72,1.42-4.14.43-5.88-1.41-4.37-4.61-9-8.97-13.59-13.37-1.21-1.16-2.66-2.07-4-3.09l-.96.95c1.22,1.66,2.35,3.41,3.68,4.98,6.09,7.22,12.27,14.36,18.33,21.59,1.23,1.46,2.11,3.22,3.18,4.88-2.41,2.74-4.98,3.56-7.95,3.34-2.71-4.77-5.18-9.4-7.92-13.88-5.78-9.45-6.24-9.9-10.69-12.15,1.15,2.47,1.8,4.29,2.78,5.91,1.88,3.1,3.7,6.3,5.99,9.09,3.15,3.84,2.5,7.47.95,10.73-4.06.22-7.48.06-10.76.68-2.95.56-5.42,2.43-5.81,5.75-.36,3,1.39,5.17,3.66,6.87,1.28.95,2.67,1.74,4.26,2.76-1.3,1.82-2.49,3.37-3.57,4.99-3.27,4.97-3.21,8.69.15,13.61,4.66,6.82,12.25,9.4,20.07,6.6,2.71-.97,5.23-2.44,7.84-3.69l1.2,1.24Zm14.18-54.83c-.92,4.82-.35,6.86,3.03,10.35,2.01,2.08,4.13,4.08,5.93,6.32,5.47,6.8,12.53,10.83,21.03,12.44,4.24.81,8.34.27,12.12-1.78,2.53-1.37,4.63-3.24,4.42-6.79-.9.06-1.44,0-1.9.15-5.68,1.92-8.01,1.27-11.66-3.4-.78-1-1.52-2.04-2.15-3.14-4.32-7.55-10.91-11.23-19.49-11.97-3.7-.32-7.34-1.39-11.34-2.18Zm5.47,18.12c0,.77-.17,1.49.03,2.09,2.54,7.85,6.19,15.07,12.23,20.85,3.97,3.8,8.52,6.83,13.89,8.21,4.41,1.13,8.73,2.26,12.31,5.28.12.1.61-.23.93-.36.1-.15.27-.29.28-.44.02-.35-.02-.72-.08-1.07-2.04-10.85-7.35-18.3-18.9-21.15-7.69-1.89-14.94-5.65-19.46-12.91-.15-.24-.63-.27-1.21-.5Zm-17.8,16.62c3.77.03,8.83-3.45,10.24-7.03,1.45-3.68.04-6.46-3.77-7.41-3.57-.9-9.88,1.94-11.51,5.16-2.36,4.68.12,9.25,5.04,9.28Zm15.04,27.76c-.84-.98-1.67-1.96-3.18-3.73-.6,3.59.48,4.36,3.18,3.73Z"/>
  <path class="cls-2" d="m58.91,106.76c-2.61,1.24-5.13,2.72-7.84,3.69-7.81,2.8-15.4.22-20.07-6.6-3.36-4.92-3.42-8.64-.15-13.61,1.07-1.63,2.26-3.18,3.57-4.99-1.59-1.02-2.99-1.81-4.26-2.76-2.28-1.7-4.02-3.87-3.66-6.87.4-3.31,2.86-5.19,5.81-5.75,3.28-.62,6.7-.46,10.76-.68,1.55-3.27,2.2-6.9-.95-10.73-2.29-2.79-4.11-5.98-5.99-9.09-.98-1.62-1.63-3.43-2.78-5.91,4.45,2.24,4.91,2.69,10.69,12.15,2.74,4.47,5.21,9.11,7.92,13.88,2.97.22,5.54-.6,7.95-3.34-1.07-1.66-1.95-3.41-3.18-4.88-6.07-7.24-12.24-14.38-18.33-21.59-1.33-1.57-2.46-3.32-3.68-4.98l.96-.95c1.34,1.02,2.79,1.93,4,3.09,4.59,4.39,9.23,8.75,13.59,13.37,1.74,1.84,3.17,2.83,5.88,1.41-.51.9-1.02,1.81-1.74,3.08,1.76,2.14,3.64,4.32,5.4,6.6,3.31,4.29,3.19,7.15-.32,9.87-3.81,2.96-9.43,2.67-12.22-.66-1.04-1.24-2-2.54-3.73-4.76-.97,8.61-4.29,15.43-8.61,22.04,13.4,1.01,16.49,3.43,18.84,14.63,1.16-.32,2.3-.6,3.42-.97,4.6-1.51,9.2-3.03,13.79-4.58,3.31-1.12,6.07-.21,8.41,2.21.88.91,1.62,1.96,2.44,2.93,3.2,3.76,7,5.69,12.03,4.04.83-.27,1.75-.29,2.8-.46-2.41,4.45-6.63,7.04-10.83,5.96-3.43-.88-7.12-2.12-9.8-4.29-4.88-3.95-9.16-3.43-13.78-.06,1.99,3.03,3.93,6.01,5.93,8.96.5.74,1.06,1.65,1.81,1.99,1.39.62,3,1.25,4.42,1.1.68-.07,1.63-1.94,1.65-3,.02-1.85-.77-3.57-3.05-3.83-.49-.05-.99,0-2.68,0,1.68-1.08,2.45-1.99,3.19-1.96,2.46.09,3.89,1.77,4.74,3.9.88,2.2.57,4.33-1.05,6.08-1.67,1.81-3.88,2.13-6.01,1.19-1.61-.71-3.11-1.86-4.38-3.09-1.01-.98-1.67-2.36-2.39-3.61q-2.72-4.7-7.77-5.44c.15-.49.3-.98.45-1.47.49-.61.97-1.21,1.46-1.82.17-.37.34-.74.51-1.11-.37.17-.74.33-1.11.5-.69.4-1.37.79-2.06,1.19Zm-22.63-23.43c2.45-3.86,4.94-6.73,5.28-11.15-2.26-.36-4.29-.68-5.35-.85-1.99,3.22-3.5,5.64-5.22,8.42,1.36.92,3.1,2.1,5.29,3.58Zm9.07,14.15c-2.22.11-3.53.97-3.15,2.97.12.62,1.77,1.58,2.35,1.37,2.02-.74,1.81-2.37.8-4.35Zm-6.38,1.25c-1.49-.85-2.39-1.78-3.07-1.64-.75.15-1.8,1.27-1.81,1.99,0,.68,1.28,2.04,1.76,1.94.95-.2,1.74-1.2,3.13-2.28Zm24.96,5.35l-.3-.19-.05.27.35-.08Z"/>
  <path class="cls-2" d="m87.89,36.5c-.32-2.07-.4-4.22-1.01-6.2-.82-2.66-2.06-5.19-3.11-7.78.36-.17.72-.33,1.07-.5,2.11,3.52,4.22,7.03,6.33,10.56,2.95-1.16,5.68-2.24,8.41-3.32.2.37.4.73.61,1.1-2.04,1.7-4.09,3.39-6.13,5.09-1.05,6.15,5.09,8.15,7.24,12.48,2.44,4.9,7.4,6.5,13.38,8.29-1.97.8-2.81,1.41-3.68,1.46-5.92.36-11.56-.65-16.72-3.72-3.33-1.98-6.8-3.08-10.77-3.24-2.75-.11-5.45-1.43-8.88-2.41-1.25,1.38-2.39,4.5-6.08,3.54-2.56-.67-5.27-.8-7.81-1.15-1.9-8.57.63-16.64,3.9-25.08,5.78,1.9,6.61,7.82,10.55,11.05,2.92-2.21,6.14-3.7,10.21-2.26.22.81.49,1.75.75,2.7,0,0,.1-.08.1-.08-.4.36-.8.73-1.2,1.09,0,0,.07-.04.07-.04-.46.1-.93.2-1.39.29.09,1.01.19,2.02.28,3.03-.13.07-.28.12-.38.23-.06.06-.03.2-.05.31.15-.17.31-.34.46-.51l3.23-2.19s.04-.03.04-.03c1.68.16,3.36.32,5.09.48-.26-2.46-1.7-2.93-3.79-2.36-.23-.28-.47-.56-.7-.84Zm6.96,8.23c.29.38.58.76.87,1.14-.27-.4-.55-.79-.82-1.19-.36-.74-.72-1.47-1.08-2.21-.28-.16-.55-.33-.83-.49l.73.6c.38.72.75,1.43,1.13,2.15Zm-23.69,2.85c2.86-7.05,1.49-11.22-4.35-14.92,1.6,5.5,2.97,10.21,4.35,14.92Z"/>
  <path class="cls-3" d="m74.29,53.18c4,.79,7.64,1.86,11.34,2.18,8.58.75,15.17,4.42,19.49,11.97.63,1.1,1.37,2.14,2.15,3.14,3.65,4.67,5.98,5.32,11.66,3.4.46-.16,1-.09,1.9-.15.21,3.55-1.89,5.42-4.42,6.79-3.78,2.05-7.88,2.59-12.12,1.78-8.5-1.62-15.56-5.65-21.03-12.44-1.81-2.24-3.92-4.24-5.93-6.32-3.38-3.49-3.95-5.53-3.03-10.35Z"/>
  <path class="cls-3" d="m79.76,71.29c.58.23,1.06.26,1.21.5,4.53,7.26,11.77,11.01,19.46,12.91,11.55,2.84,16.87,10.29,18.9,21.15.07.35.1.71.08,1.07,0,.15-.18.3-.28.45-.32.13-.81.47-.93.36-3.57-3.01-7.9-4.15-12.31-5.28-5.37-1.38-9.91-4.41-13.89-8.21-6.04-5.77-9.69-13-12.23-20.85-.2-.6-.03-1.32-.03-2.09Z"/>
  <path class="cls-2" d="m61.97,87.92c-4.92-.04-7.4-4.61-5.04-9.28,1.63-3.23,7.94-6.06,11.51-5.16,3.81.96,5.22,3.73,3.77,7.41-1.41,3.58-6.47,7.06-10.24,7.03Zm.58-11.61c-.9.77-2.32,1.51-2.97,2.67-.7,1.26-1.23,3.07-.86,4.36.58,2.07,2.76,2.39,4.52,1.76,2.26-.81,4.34-2.15,6.42-3.22-2.53-1.98-4.52-3.54-7.11-5.57Z"/>
  <path class="cls-2" d="m77.01,115.68c-2.7.63-3.77-.14-3.18-3.73,1.51,1.77,2.34,2.75,3.18,3.73Z"/>
  <path class="cls-2" d="m86.13,37.1c.59-.2,1.17-.4,1.76-.6.23.28.47.56.7.84-.43.63-.87,1.25-1.3,1.88,0,0-.04.03-.04.03-.5-.3-1.01-.59-1.51-.89.16-.44.32-.89.48-1.33l-.1.08Z"/>
  <path class="cls-1" d="m61.58,106.19c-.49.61-.97,1.21-1.46,1.82-.4-.41-.8-.83-1.2-1.24.69-.4,1.37-.79,2.06-1.19.19.21.4.42.6.62Z"/>
  <path class="cls-6" d="m36.29,83.33c-2.19-1.48-3.93-2.66-5.29-3.58,1.72-2.78,3.22-5.2,5.22-8.42,1.06.17,3.1.49,5.35.85-.33,4.42-2.82,7.3-5.28,11.15Z"/>
  <path class="cls-6" d="m45.36,97.48c1.01,1.98,1.23,3.61-.8,4.35-.58.21-2.24-.75-2.35-1.37-.38-2,.93-2.87,3.15-2.97Z"/>
  <path class="cls-6" d="m38.99,98.72c-1.39,1.09-2.17,2.08-3.13,2.28-.48.1-1.77-1.26-1.76-1.94.01-.71,1.06-1.84,1.81-1.99.69-.14,1.58.79,3.07,1.64Z"/>
  <polygon class="cls-1" points="63.95 104.07 63.6 104.16 63.65 103.88 63.95 104.07"/>
  <path class="cls-1" d="m60.98,105.57c.37-.17.74-.33,1.11-.5-.17.37-.34.74-.51,1.11-.2-.2-.4-.4-.6-.61Z"/>
  <path class="cls-4" d="m71.16,47.58c-1.37-4.71-2.74-9.42-4.35-14.92,5.83,3.7,7.2,7.87,4.35,14.92Z"/>
  <path class="cls-2" d="m87.29,39.22c.43-.63.87-1.26,1.3-1.88,2.09-.56,3.53-.09,3.79,2.36-1.73-.16-3.41-.32-5.09-.48Z"/>
  <path class="cls-2" d="m85.74,38.36c.5.3,1.01.59,1.51.89-1.08.73-2.15,1.46-3.23,2.19,0,0-.03-.03-.03-.03-.09-1.01-.19-2.02-.28-3.03.46-.1.93-.2,1.39-.29,0,0-.07.04-.07.04.25.04.49.12.71.24Z"/>
  <path class="cls-2" d="m93.82,42.47c.36.74.72,1.47,1.08,2.21l-.06.05-1.13-2.15.1-.1Z"/>
  <path class="cls-2" d="m94.91,44.68c.27.4.55.79.82,1.19-.29-.38-.58-.76-.88-1.14,0,0,.06-.05.06-.05Z"/>
  <path class="cls-2" d="m85.74,38.36c-.23-.12-.46-.2-.71-.24.4-.36.8-.73,1.2-1.09-.16.44-.32.89-.48,1.33Z"/>
  <path class="cls-4" d="m85.09,38.08c-.46.1-.93.19-1.39.29.46-.1.93-.19,1.39-.29Z"/>
  <path class="cls-2" d="m84.01,41.43c-.15.17-.31.34-.46.51.01-.1-.01-.25.05-.31.1-.1.25-.15.38-.23,0,0,.03.03.03.03Z"/>
  <path class="cls-2" d="m93.72,42.58l-.73-.6c.28.16.55.33.83.49,0,0-.1.1-.1.1Z"/>
  <path class="cls-6" d="m62.55,76.31c2.59,2.03,4.59,3.59,7.11,5.57-2.08,1.07-4.16,2.41-6.42,3.22-1.76.63-3.94.31-4.52-1.76-.36-1.3.16-3.11.86-4.36.65-1.17,2.07-1.9,2.97-2.67Z"/>
</svg>